<svg width="120" height="708" viewBox="0 0 120 708" fill="none" xmlns="http://www.w3.org/2000/svg">
<path d="M83.0295 27.5253V1H65.212V27.5254L41.0987 14.6858L34.7321 32.5716L65.212 48.8013V66.3364L31.2541 48.2548L24.8875 66.1406L65.212 87.6122V105.998L23.7524 83.9216L17.3858 101.807L65.212 127.273V145.891L14.5024 118.89L8.13578 136.775L65.212 167.167V184.125L8.3666 153.857L2 171.743L65.212 205.401V219.16L8.3666 188.891L2 206.777L65.212 240.435V259.023L8.3666 228.754L2 246.64L65.212 280.299V294.34L8.3666 264.072L2 281.958L65.212 315.616V331.056L8.3666 300.788L2 318.674L65.212 352.332V370.57L8.3666 340.301L2 358.187L65.212 391.846V412.182L8.3666 381.913L2 399.799L65.212 433.457V448.548L8.3666 418.279L2 436.165L65.212 469.824V489.227L14.0574 461.989L7.69078 479.875L65.212 510.503V524.552L22.8034 501.97L16.4368 519.856L65.212 545.828V562.304L37.9322 547.779L31.5656 565.664L65.212 583.58L65.2119 706.284H83.0294L83.0294 583.58L116.676 565.664L110.309 547.779L83.0294 562.304V545.828L131.804 519.856L125.438 501.97L83.0294 524.552V510.503L140.55 479.875L134.184 461.989L83.0294 489.227V469.824L146.241 436.165L139.875 418.279L83.0294 448.548V433.457L146.241 399.799L139.875 381.913L83.0295 412.181V391.845L146.241 358.187L139.875 340.301L83.0295 370.57V352.332L146.241 318.674L139.875 300.788L83.0295 331.056V315.616L146.241 281.958L139.875 264.072L83.0295 294.34V280.298L146.241 246.64L139.875 228.754L83.0295 259.022V240.435L146.241 206.777L139.875 188.891L83.0295 219.159V205.401L146.241 171.743L139.875 153.857L83.0295 184.125V167.167L140.105 136.775L133.739 118.889L83.0295 145.891V127.273L130.855 101.807L124.489 83.9215L83.0295 105.997V87.6121L123.354 66.1405L116.987 48.2547L83.0295 66.3363V48.8011L113.509 32.5715L107.143 14.6857L83.0295 27.5253Z" fill="#7AE2ED" stroke="black" stroke-width="2"/>
</svg>
