<svg width="99" height="133" viewBox="0 0 99 133" fill="none" xmlns="http://www.w3.org/2000/svg">
<path d="M83.1334 66.5001C83.1334 101.337 55.0206 129.573 20.347 129.573C-14.3266 129.573 -42.4394 101.337 -42.4394 66.5001C-42.4394 31.6634 -14.3266 3.42705 20.347 3.42705C55.0206 3.42705 83.1334 31.6634 83.1334 66.5001Z" stroke="black" stroke-width="1.12119"/>
<path d="M64.9533 66.5002C64.9533 91.1081 45.0949 111.054 20.6021 111.054C-3.89066 111.054 -23.749 91.1081 -23.749 66.5002C-23.749 41.8922 -3.89066 21.9465 20.6021 21.9465C45.0949 21.9465 64.9533 41.8922 64.9533 66.5002Z" stroke="black" stroke-width="0.791985"/>
<path d="M73.9487 66.5C73.9487 96.2615 49.8223 120.388 20.0608 120.388C-9.70068 120.388 -33.8271 96.2615 -33.8271 66.5C-33.8271 36.7385 -9.70068 12.6121 20.0608 12.6121C49.8223 12.6121 73.9487 36.7385 73.9487 66.5Z" stroke="#7AE2ED" stroke-width="17.1983"/>
<circle cx="83.4074" cy="65.0668" r="2.86638" fill="white" stroke="black" stroke-width="0.573276"/>
<circle cx="19.7741" cy="3.15302" r="2.86638" fill="white" stroke="black" stroke-width="0.573276"/>
<circle cx="19.7741" cy="110.929" r="2.86638" fill="white" stroke="black" stroke-width="0.573276"/>
<circle cx="64.4894" cy="65.0668" r="2.86638" fill="white" stroke="black" stroke-width="0.573276"/>
<circle cx="19.7741" cy="22.0712" r="2.86638" fill="white" stroke="black" stroke-width="0.573276"/>
<circle cx="19.7741" cy="129.847" r="2.86638" fill="white" stroke="black" stroke-width="0.573276"/>
<path fill-rule="evenodd" clip-rule="evenodd" d="M78.2078 92.9561C77.8482 92.5142 77.4115 91.6106 76.6342 90.5137C76.1936 89.8933 75.101 88.7251 74.7757 88.1317C74.4934 87.6073 74.5238 87.3721 74.5909 86.9376C74.7099 86.1645 75.5252 85.5625 76.3949 85.6438C77.0519 85.7041 77.609 86.1263 78.1103 86.5252C78.4129 86.7652 78.7851 87.2318 79.0091 87.4953C79.2155 87.7365 79.2661 87.8362 79.4864 88.1218C79.7776 88.4998 79.8687 88.6869 79.7573 88.2708C79.6675 87.6602 79.5206 86.6175 79.3079 85.6955C79.1459 84.9963 79.1066 84.8867 78.9522 84.35C78.7889 83.7788 78.7053 83.3787 78.5521 82.773C78.4458 82.3446 78.2546 81.4693 78.2027 80.9769C78.1305 80.3036 78.0926 79.2055 78.5369 78.7008C78.8851 78.3056 79.6839 78.1862 80.1789 78.4299C80.8271 78.7488 81.1955 79.6647 81.3639 80.0303C81.6664 80.6876 81.8538 81.4472 82.0171 82.4443C82.2247 83.7135 82.6071 85.4751 82.6197 85.8457C82.6501 85.3914 82.5336 84.4349 82.6147 83.9991C82.6881 83.604 83.0299 83.1448 83.4578 83.0204C83.8199 82.9158 84.244 82.8776 84.6174 82.9527C85.0137 83.0315 85.4315 83.3073 85.5872 83.567C86.0455 84.3352 86.0543 85.9048 86.0733 85.821C86.1822 85.3582 86.1632 84.3081 86.4329 83.8711C86.6101 83.583 87.0621 83.3233 87.3026 83.2814C87.6748 83.2174 88.1318 83.1977 88.523 83.2716C88.8382 83.3319 89.2649 83.6963 89.3801 83.8711C89.6561 84.2946 89.813 85.4924 89.8599 85.9121C89.8789 86.0857 89.9536 85.4296 90.2308 85.0061C90.7448 84.2195 92.564 84.0668 92.6337 85.7927C92.6653 86.5978 92.659 86.5609 92.659 87.1026C92.659 87.739 92.6438 88.1218 92.6083 88.5823C92.5691 89.0747 92.4602 90.1875 92.302 90.7267C92.1931 91.0973 91.8323 91.9307 91.4766 92.4305C91.4766 92.4305 90.1169 93.9692 89.9688 94.6623C89.8194 95.3542 89.8688 95.3591 89.8396 95.8503C89.8105 96.3402 89.9928 96.9853 89.9928 96.9853C89.9928 96.9853 88.9775 97.1133 88.4306 97.0284C87.9356 96.9508 87.3229 95.9931 87.1646 95.7001C86.9469 95.2963 86.4822 95.3739 86.3012 95.6718C86.0164 96.1433 85.4036 96.989 84.9707 97.0419C84.125 97.1453 82.3703 97.0801 80.9967 97.0665C80.9967 97.0665 81.2309 95.822 80.7094 95.3948C80.3232 95.0759 79.6586 94.4297 79.2611 94.0899L78.2078 92.9561Z" fill="white"/>
<path fill-rule="evenodd" clip-rule="evenodd" d="M78.2078 92.9561C77.8482 92.5142 77.4115 91.6106 76.6342 90.5137C76.1936 89.8933 75.101 88.7251 74.7757 88.1317C74.4934 87.6073 74.5238 87.3721 74.5909 86.9376C74.7099 86.1645 75.5252 85.5625 76.3949 85.6438C77.0519 85.7041 77.609 86.1263 78.1103 86.5252C78.4129 86.7652 78.7851 87.2318 79.0091 87.4953C79.2155 87.7365 79.2661 87.8362 79.4864 88.1218C79.7776 88.4998 79.8687 88.6869 79.7573 88.2708C79.6675 87.6602 79.5206 86.6175 79.3079 85.6955C79.1459 84.9963 79.1066 84.8867 78.9522 84.35C78.7889 83.7788 78.7053 83.3787 78.5521 82.773C78.4458 82.3446 78.2546 81.4693 78.2027 80.9769C78.1305 80.3036 78.0926 79.2055 78.5369 78.7008C78.8851 78.3056 79.6839 78.1862 80.1789 78.4299C80.8271 78.7488 81.1955 79.6647 81.3639 80.0303C81.6664 80.6876 81.8538 81.4472 82.0171 82.4443C82.2247 83.7135 82.6071 85.4751 82.6197 85.8457C82.6501 85.3914 82.5336 84.4349 82.6147 83.9991C82.6881 83.604 83.0299 83.1448 83.4578 83.0204C83.8199 82.9158 84.244 82.8776 84.6174 82.9527C85.0137 83.0315 85.4315 83.3073 85.5872 83.567C86.0455 84.3352 86.0543 85.9048 86.0733 85.821C86.1822 85.3582 86.1632 84.3081 86.4329 83.8711C86.6101 83.583 87.0621 83.3233 87.3026 83.2814C87.6748 83.2174 88.1318 83.1977 88.523 83.2716C88.8382 83.3319 89.2649 83.6963 89.3801 83.8711C89.6561 84.2946 89.813 85.4924 89.8599 85.9121C89.8789 86.0857 89.9536 85.4296 90.2308 85.0061C90.7448 84.2195 92.564 84.0668 92.6337 85.7927C92.6653 86.5978 92.659 86.5609 92.659 87.1026C92.659 87.739 92.6438 88.1218 92.6083 88.5823C92.5691 89.0747 92.4602 90.1875 92.302 90.7267C92.1931 91.0973 91.8323 91.9307 91.4766 92.4305C91.4766 92.4305 90.1169 93.9692 89.9688 94.6623C89.8194 95.3542 89.8688 95.3591 89.8396 95.8503C89.8105 96.3402 89.9928 96.9853 89.9928 96.9853C89.9928 96.9853 88.9775 97.1133 88.4306 97.0284C87.9356 96.9508 87.3229 95.9931 87.1646 95.7001C86.9469 95.2963 86.4822 95.3739 86.3012 95.6718C86.0164 96.1433 85.4036 96.989 84.9707 97.0419C84.125 97.1453 82.3703 97.0801 80.9967 97.0665C80.9967 97.0665 81.2309 95.822 80.7094 95.3948C80.3232 95.0759 79.6586 94.4297 79.2611 94.0899L78.2078 92.9561V92.9561Z" stroke="black" stroke-width="0.949488" stroke-linecap="round" stroke-linejoin="round"/>
<path d="M88.6333 93.3922V89.134" stroke="black" stroke-width="0.949488" stroke-linecap="round"/>
<path d="M86.0813 93.4067L86.061 89.1313" stroke="black" stroke-width="0.949488" stroke-linecap="round"/>
<path d="M83.5542 89.1702L83.5808 93.3877" stroke="black" stroke-width="0.949488" stroke-linecap="round"/>
</svg>
